
<svg version="1.1" xmlns="http://www.w3.org/2000/svg" xmlns:xlink="http://www.w3.org/1999/xlink" x="0px" y="0px" viewBox="0 0 1000 1000" enable-background="new 0 0 1000 1000" xml:space="preserve">
<metadata> Svg Vector Icons : http://www.onlinewebfonts.com/icon </metadata>
<g><g transform="translate(0.000000,511.000000) scale(0.100000,-0.100000)"><path d="M4557.8,4996.6c-1157.3-113.4-2199.3-603.7-3018.3-1422.6c-403.7-401.8-695.9-811.3-942-1316.9c-161.5-330.7-248-561.4-336.4-895.9c-440.3-1682.2,36.5-3458.6,1259.2-4689c273-274.9,472.9-440.3,782.5-646c911.3-605.6,2041.7-894,3110.6-795.9c992,92.3,1884.1,449.9,2662.7,1070.8c207.6,165.3,569,524.8,738.2,736.3c1220.8,1530.3,1430.3,3598.9,536.4,5325.3c-398,770.9-1018.9,1443.8-1764.8,1912.9c-213.4,134.6-649.8,349.9-895.9,440.3c-265.3,98-665.2,199.9-963.2,244.2C5438.3,5002.3,4821.1,5023.5,4557.8,4996.6z M5634.4,4371.7c1205.4-182.6,2270.5-863.2,2951-1884c349.9-522.9,574.8-1113.1,674.8-1759.1c48-305.7,48-926.6,1.9-1226.5c-150-951.6-555.6-1759.1-1224.6-2426.2c-667.1-669-1474.6-1074.7-2426.2-1224.6c-298-46.1-920.9-46.1-1222.7,0C2481.5-3852.7,1030-2403.1,737.7-501.8c-46.1,305.7-46.1,924.7,0,1230.4c190.3,1241.9,872.8,2305.1,1924.4,2995.3c578.7,380.7,1228.5,603.7,2001.3,684.4C4821.1,4423.7,5438.3,4400.6,5634.4,4371.7z"/><path d="M4048.3,2756.8c-90.4-32.7-155.7-105.7-184.6-207.6c-42.3-155.7-67.3-126.9,1130.4-1324.6L6105.4,113.4L4994.2-997.8C4086.7-1905.2,3881-2120.5,3863.7-2180.1c-57.7-209.6,151.9-417.2,363.4-361.4c59.6,17.3,286.5,236.5,1326.5,1274.6C6618.7-200,6807.1-1.9,6810.9,46.1c3.8,69.2,0,121.1-13.5,173c-13.5,63.4-2476.2,2514.6-2551.2,2541.5C4163.6,2789.5,4140.6,2789.5,4048.3,2756.8z"/></g></g>
</svg>